<svg width="98" height="49" viewBox="0 0 98 49" fill="none" xmlns="http://www.w3.org/2000/svg">
<path fill-rule="evenodd" clip-rule="evenodd" d="M84.6621 23.3027H81.405V10.4695H84.4709V11.9069C84.8541 11.0444 85.8127 10.2801 87.058 10.1829C89.1662 10.0882 90.6035 11.3328 90.6035 14.013V23.3019H87.2448V13.6283C87.2448 12.4784 87.2448 11.5213 86.4697 11.3302C86.1821 11.2355 85.6947 11.3302 85.3192 11.6168C84.8412 12.0962 84.6474 12.6712 84.6474 13.6283V23.3002L84.6621 23.3027ZM29.2765 11.3302C28.5014 10.6588 27.5515 10.1803 26.4001 10.1803C25.2486 10.1803 24.3883 10.6597 23.5254 11.3302C22.1836 12.4801 21.3207 14.5863 21.3207 16.8844C21.3207 19.2789 22.1819 21.2895 23.5254 22.4386C24.3883 23.1099 25.2504 23.5885 26.4001 23.5885C27.5498 23.5885 28.5083 23.1108 29.2765 22.4386C30.7147 21.2887 31.4812 19.278 31.4812 16.8844C31.4812 14.5863 30.7061 12.4792 29.2765 11.3302ZM28.0312 16.8844C28.0312 19.2789 28.0312 21.194 27.6471 22.152C27.3603 22.6297 27.0787 22.9266 26.4018 22.9266C25.8334 22.9266 25.4441 22.6391 25.2512 22.152C24.7715 21.194 24.7715 19.2772 24.7715 16.8844C24.7715 14.5863 24.7715 12.5748 25.2512 11.6168C25.4433 11.1391 25.8196 10.8422 26.4018 10.8422C27.0735 10.8422 27.3603 11.1296 27.6479 11.6168C28.1276 12.5748 28.032 14.5863 28.032 16.8844H28.0312ZM62.7169 28.1864V31.6336H62.0469C61.6637 30.1979 61.0884 28.9585 59.5555 28.8561C58.597 28.7614 57.7349 29.3355 57.6384 30.1971C57.542 31.0587 57.8305 31.8238 59.5555 32.7827C61.7601 34.0281 63.4843 34.6022 63.4843 37.1878C63.4843 39.9653 61.0884 41.3055 59.0766 41.3055H55.2443V36.5165H55.916C56.3957 39.0065 57.1622 40.5386 58.9819 40.6341C60.1325 40.6341 60.9937 39.9628 60.9937 38.719C60.9937 37.4753 60.2186 36.7075 58.4066 35.6549C56.3949 34.4103 55.1487 33.6442 55.1487 31.9194C55.1487 29.6213 56.7781 28.1839 59.3651 28.1839H62.7238L62.7169 28.1864ZM66.9342 23.3019V14.013C66.9342 11.331 65.496 10.0865 63.3887 10.1829C61.9505 10.2775 61.0893 11.2372 60.7052 12.0024C60.2272 10.6614 59.1722 10.0873 57.6393 10.1829C56.3949 10.2775 55.4346 11.0453 55.0522 11.9069V10.4695H52.0811V23.2941H55.3382V13.6317C55.3382 12.6738 55.4329 12.0997 56.0099 11.6202C56.394 11.3336 56.7764 11.2381 57.0632 11.3336C57.8382 11.5256 57.8382 12.4835 57.8382 13.6317V23.3027H61.0807V13.5336C61.0807 12.6712 61.2718 12.0962 61.7524 11.6177C62.1356 11.331 62.5275 11.2355 62.8056 11.331C63.5807 11.523 63.6668 12.481 63.6668 13.6292V23.2941H66.9248L66.9342 23.3019ZM33.6944 7.78662H37.0531V23.3002H33.6944V7.78662ZM48.9205 23.3027V7.78834H45.5618V11.4274C45.275 10.7561 44.6033 10.2775 43.6456 10.2775C41.2498 10.2775 39.3336 12.7676 39.238 16.5978C39.1433 19.1834 40.0045 23.4921 43.358 23.4921C44.6989 23.4921 45.4662 22.7175 45.7539 22.0547V23.3002H48.9162L48.9205 23.3027ZM44.9917 11.5238C45.6634 12.4818 45.6634 14.7791 45.6634 16.5986C45.6634 18.5137 45.7582 21.0038 44.9917 22.0573C44.704 22.4412 44.4233 22.6254 43.9384 22.6254C43.2667 22.6254 42.8835 21.8507 42.6931 20.6147C42.5967 19.4648 42.5967 18.0291 42.5967 16.4971C42.5967 13.9115 42.7887 11.0384 44.0349 11.0384C44.5146 11.0384 44.7066 11.2303 44.9934 11.5178L44.9917 11.5238ZM76.9009 10.8525C77.7621 11.3319 78.3391 12.0979 78.3391 13.822V23.3027H75.1768V21.8653C74.7936 22.918 73.7386 23.5885 72.3004 23.5885C71.1498 23.5885 69.1381 23.0204 69.1381 20.0449C69.1381 17.2674 70.9586 16.6881 72.9704 15.8317C74.791 15.0571 74.9822 14.9693 74.9822 14.205V12.0979C74.9822 11.2372 74.5042 10.8533 73.544 10.8533C73.1607 10.948 72.4907 11.1408 72.4907 11.628C72.3943 12.1961 73.0591 12.1961 73.1625 13.0654C73.2572 14.4064 72.2039 14.8841 71.2463 14.7885C70.5745 14.7885 69.8081 14.4055 69.7133 13.3529C69.6186 11.6289 71.5339 10.1923 74.2114 10.1923C75.4576 10.1923 76.224 10.4798 76.8949 10.8637L76.9009 10.8525ZM74.9839 15.6407L73.9306 16.312C72.8774 16.9834 72.6845 17.8441 72.5889 18.8021C72.4942 19.5767 72.4942 20.2395 72.5889 21.3877C72.6836 22.4403 73.3554 22.6331 73.9306 22.4403C74.6024 22.1528 74.9839 20.9082 74.9839 19.5655V15.6389V15.6407ZM29.4694 28.7614C30.3323 29.3295 30.8103 30.0069 30.8103 31.7309V41.3089H27.7444V39.8715C27.3612 40.8295 26.3079 41.4983 24.868 41.4983C23.6227 41.4983 21.7057 41.0189 21.7057 38.0511C21.7057 35.2736 23.5262 34.6943 25.4433 33.8379C27.3603 32.9815 27.5498 32.8799 27.5498 32.2112V30.1024C27.5498 29.1444 27.0701 28.7623 26.1133 28.8578C25.7292 28.8578 25.0583 29.0497 25.0583 29.5292C24.9636 30.2005 25.6267 30.2005 25.73 31.0612C25.8265 32.3067 24.7715 32.7853 23.8139 32.7853C23.1421 32.6906 22.3757 32.3076 22.2809 31.2532C22.1862 29.6264 24.1015 28.189 26.779 28.189C28.0252 28.189 28.7908 28.381 29.4625 28.7571L29.4694 28.7614ZM27.5523 33.5496L26.4991 34.2209C25.4459 34.8923 25.2538 35.753 25.1573 36.711C25.0626 37.477 25.0626 38.2431 25.1573 39.2966C25.1573 40.4465 25.8291 40.6367 26.4035 40.3492C27.17 40.0617 27.5541 38.9135 27.5541 37.4762V33.5496H27.5523ZM52.6581 32.0175C52.6581 29.3355 51.2199 27.9954 49.1125 28.1873C48.0593 28.282 47.1964 28.7554 46.7167 29.4328V25.6973H43.4605V34.5084C43.4605 37.7645 41.1611 40.8286 38.8617 40.7331C37.234 40.7331 36.849 39.4885 36.657 38.1475C36.3693 36.2316 36.3693 34.0298 36.5605 31.6353C36.7526 30.1033 37.1289 28.8578 38.2855 28.8578C39.1484 28.8578 39.244 29.4259 38.8539 29.8158C38.4698 30.2952 37.8954 30.7738 38.1822 31.8273C38.4689 32.9772 40.2887 33.1674 41.1533 32.3067C41.8251 31.5407 41.7217 30.2952 41.248 29.5292C40.6796 28.5712 39.7151 28.189 38.2769 28.189C36.4563 28.189 33.0063 29.8158 33.0063 34.9887C33.0063 40.5429 36.5519 41.5 38.5637 41.5C40.8631 41.5 42.8757 39.4885 43.4501 37.8609V41.3098H46.7081V31.6362C46.7081 30.6782 46.9001 30.1041 47.3798 29.6247C47.7639 29.3381 48.2427 29.2417 48.5304 29.3381C49.2968 29.5292 49.2968 30.488 49.2968 31.6362V41.3089H52.6555V32.0192L52.6581 32.0175ZM19.1195 7.5V12.9587H18.4477C17.8793 10.2767 16.6271 8.26604 14.9022 8.1705C13.7516 8.07582 13.0824 8.73857 12.5063 9.70257C11.9379 10.8525 11.6434 13.2461 11.6434 16.1183C11.6434 18.8003 11.7398 20.811 12.0275 22.2466C12.2187 22.918 12.6992 23.9707 13.9436 23.9707C14.6154 23.9707 15.0942 23.7787 15.3818 23.4026C15.8615 22.8345 15.9502 21.6786 15.9502 20.9125V18.3278C15.9502 17.3698 15.6626 16.7957 15.1838 16.5083C14.8005 16.3163 14.2253 16.3163 13.9385 16.2208V15.5494H19.3038V29.2348H18.632C18.3478 28.1916 18.1558 27.4256 17.6761 26.5649C17.1964 25.7041 16.3343 24.7462 14.897 24.7462C13.3641 24.6498 12.2135 25.6086 12.2135 27.0443C12.2135 28.9602 13.3641 29.4388 15.4714 30.5878C17.484 31.7378 20.0702 32.6949 20.0702 36.0474C20.0702 39.3035 17.2911 41.3149 14.1297 41.3149H9.05029V34.7133H9.72203C10.585 39.6925 12.6932 40.5549 14.1297 40.5549C15.9502 40.5549 16.8063 39.405 16.8063 37.7774C16.7115 35.6704 15.269 34.9026 13.2607 33.8508C10.386 32.2241 9.04512 31.4563 9.04512 28.7743C9.13986 26.4762 10.9622 25.0388 12.9739 24.4647C8.75834 23.9853 7.51219 20.1551 7.60864 16.0417C7.60864 11.9241 10.0045 7.51807 14.6989 7.51807H19.1065L19.1195 7.5Z" fill="#BFBFBF"/>
</svg>
