<svg width="79" height="27" viewBox="0 0 79 27" fill="none" xmlns="http://www.w3.org/2000/svg">
<path opacity="0.4" fill-rule="evenodd" clip-rule="evenodd" d="M10.2339 9.73588V12.4923L16.823 12.4894C16.6209 14.0096 16.1082 15.1227 15.3288 15.9019C14.3678 16.8627 12.8678 17.9202 10.2339 17.9202C6.17313 17.9202 2.99721 14.6482 2.99721 10.5883C2.99721 6.52837 6.17313 3.25641 10.2339 3.25641C12.4254 3.25641 14.0251 4.11761 15.2058 5.22486L17.1512 3.27984C15.5046 1.70685 13.3131 0.5 10.2368 0.5C4.67599 0.5 0 5.0286 0 10.5883C0 16.148 4.67599 20.6766 10.2368 20.6766C13.2369 20.6766 15.5017 19.6924 17.2742 17.8469C19.0966 16.025 19.662 13.4677 19.662 11.3997C19.662 10.7845 19.6151 10.2163 19.5243 9.73588H10.2339ZM65.8155 20.2813V1.2413H63.0322V20.2813H65.8155ZM27.2883 20.6796C30.8803 20.6796 33.8072 17.9232 33.8072 14.1826C33.8072 10.4156 30.8803 7.68551 27.2883 7.68551C23.6964 7.68551 20.7695 10.4156 20.7695 14.1826C20.7695 17.9232 23.6964 20.6796 27.2883 20.6796ZM27.2883 10.2457C29.2572 10.2457 30.9535 11.845 30.9535 14.1826C30.9535 16.4937 29.2572 18.1194 27.2883 18.1194C25.3195 18.1194 23.6231 16.4967 23.6231 14.1826C23.6231 11.845 25.3195 10.2457 27.2883 10.2457ZM41.3516 20.6796C44.9436 20.6796 47.8705 17.9232 47.8705 14.1826C47.8705 10.4156 44.9436 7.68551 41.3516 7.68551C37.7597 7.68551 34.8328 10.4185 34.8328 14.1826C34.8328 17.9232 37.7597 20.6796 41.3516 20.6796ZM41.3516 10.2457C43.3205 10.2457 45.0168 11.845 45.0168 14.1826C45.0168 16.4937 43.3205 18.1194 41.3516 18.1194C39.3828 18.1194 37.6864 16.4967 37.6864 14.1826C37.6864 11.845 39.3828 10.2457 41.3516 10.2457ZM61.3479 8.08096V19.7423C61.3479 24.5403 58.5177 26.5 55.1718 26.5C52.0222 26.5 50.1266 24.3939 49.4118 22.6715L51.8963 21.6375C52.3387 22.6949 53.4227 23.9428 55.1689 23.9428C57.3106 23.9428 58.6378 22.6217 58.6378 20.1348V19.2003H58.5382C57.8995 19.9883 56.6689 20.6767 55.1161 20.6767C51.867 20.6767 48.8903 17.847 48.8903 14.206C48.8903 10.5386 51.867 7.68551 55.1161 7.68551C56.666 7.68551 57.8965 8.37388 58.5382 9.13841H58.6378V8.08096H61.3479ZM58.8399 14.206C58.8399 11.9183 57.3135 10.2457 55.371 10.2457C53.4022 10.2457 51.7527 11.9183 51.7527 14.206C51.7527 16.4703 53.4022 18.1195 55.371 18.1195C57.3135 18.1195 58.8399 16.4703 58.8399 14.206ZM76.662 16.3209L78.8769 17.7972C78.1621 18.8547 76.4393 20.6767 73.4626 20.6767C69.7711 20.6767 67.0141 17.8236 67.0141 14.1796C67.0141 10.316 69.7945 7.6826 73.1433 7.6826C76.5155 7.6826 78.165 10.3658 78.7041 11.8157L79 12.5539L70.3131 16.151C70.9782 17.4545 72.0124 18.1195 73.4626 18.1195C74.9158 18.1195 75.9237 17.4047 76.662 16.3209ZM69.8443 13.9834L75.6512 11.5726C75.3319 10.7612 74.3709 10.1959 73.24 10.1959C71.7897 10.1959 69.7711 11.476 69.8443 13.9834Z" fill="#717684"/>
</svg>
