<svg width="85" height="35" viewBox="0 0 85 35" fill="none" xmlns="http://www.w3.org/2000/svg">
<g opacity="0.3" clip-path="url(#clip0_458_47488)">
<path d="M13.9184 16.6687L14.0718 16.39L18.413 8.44006H10.84L8.07837 14.8507L7.25586 16.7583L8.06843 18.4405L11.3372 25.2096H19.0523L14.0831 16.9418L13.9184 16.6687Z" fill="black"/>
<path d="M7.87853 25.1887H0.799805V7.51991C0.799805 3.55056 3.92791 0.288527 7.87995 0V8.99336V25.1901L7.87853 25.1887Z" fill="black"/>
<path d="M27.15 8.44006H20.0713V25.2096H27.15V8.44006Z" fill="black"/>
<path d="M30.7315 8.38549H28.335V14.0146H30.7315V25.2111H37.8116V14.0146H40.8928V8.38549H37.8116C37.8116 6.79019 38.6853 5.79855 40.0916 5.79855C40.3729 5.79855 40.6513 5.82376 40.8914 5.85598V0.232502C40.3729 0.13726 39.4424 0 38.3798 0C33.4476 0 30.7315 2.97771 30.7315 8.38549Z" fill="black"/>
<path d="M49.4986 8.44006H42.4199V25.2096H49.4986V8.44006Z" fill="black"/>
<path d="M61.9855 8.44012L60.5223 17.4195L59.9612 20.8692L59.3986 17.4195L58.4668 11.7078C58.1599 9.82393 56.5106 8.43872 54.5758 8.43872H50.6465L56.3913 25.5935L56.4552 25.7812L56.3856 25.9674L55.8728 27.3176C55.4622 28.4409 54.4891 29.2015 53.4564 29.2015C53.1353 29.2015 52.847 29.144 52.6097 29.0712L51.0542 33.9537C51.7148 34.3109 53.1993 35 54.8258 35C58.8119 35 61.0309 32.8164 63.0169 26.9437L69.2716 8.44012H61.9855Z" fill="black"/>
<path d="M75.8403 8.4989C72.6426 8.4989 70.5515 9.94994 69.7915 10.5816L71.938 13.9445C72.5233 13.5215 73.5319 12.9501 74.7096 12.9501C77.1288 12.9501 78.0351 14.3983 78.1758 15.163L78.2979 15.8241H75.032C70.3995 15.8241 67.8496 17.4909 67.8496 20.5176C67.8496 23.3244 69.9563 25.2111 73.0944 25.2111C75.6102 25.2111 76.7452 23.204 76.7921 23.1185L77.4186 21.9826L77.8348 23.2068L78.3519 24.7335H84.7999V16.8564C84.7999 12.0929 80.9487 8.5003 75.8403 8.5003M76.0023 21.2361C75.5761 21.2361 75.1599 21.089 74.8005 20.8089C74.8005 20.8089 74.7195 20.7277 74.6954 20.6941C74.6698 20.6591 74.6087 20.5414 74.6087 20.5414C74.3516 19.7977 74.4382 19.075 74.8516 18.5049C75.2139 18.0049 75.9867 17.4082 77.6075 17.4054H78.1786L78.1871 17.9755C78.1843 20.3817 77.0081 21.2347 76.0037 21.2347" fill="black"/>
<path d="M49.625 3.6388C49.625 5.64868 47.9828 7.2776 45.9585 7.2776C43.9342 7.2776 42.292 5.64868 42.292 3.6388C42.292 1.62892 43.9342 0 45.9585 0C47.9828 0 49.625 1.62892 49.625 3.6388Z" fill="#878787"/>
</g>
<defs>
<clipPath id="clip0_458_47488">
<rect width="84" height="35" fill="white" transform="translate(0.799805)"/>
</clipPath>
</defs>
</svg>
