<svg width="104" height="105" viewBox="0 0 104 105" fill="none" xmlns="http://www.w3.org/2000/svg">
<g opacity="0.3">
<path d="M40.8096 44.4386H44.0004L49.4258 54.4065L54.8514 44.4386H57.973V60.8178H55.3697V48.2643L50.6124 56.9571H48.1703L43.4128 48.2643V60.8178H40.8096V44.4386Z" fill="#111928"/>
<path d="M66.3664 61.1093C65.1606 61.1093 64.1008 60.8382 63.1869 60.2961C62.273 59.754 61.5608 59.0033 61.0502 58.0439C60.5393 57.0845 60.284 55.9848 60.2842 54.7446C60.2842 53.489 60.5338 52.3775 61.033 51.4103C61.532 50.4433 62.2251 49.6868 63.1122 49.1407C63.9991 48.5948 65.0186 48.3218 66.1706 48.3217C67.3147 48.3217 68.2997 48.5966 69.1252 49.1463C69.9507 49.6964 70.5862 50.4667 71.0316 51.4571C71.477 52.4477 71.6998 53.6099 71.6998 54.9435V55.6688H62.8644C63.0257 56.6673 63.4232 57.4532 64.0568 58.0263C64.6904 58.5996 65.4908 58.8863 66.4585 58.8861C67.234 58.8861 67.9022 58.7693 68.4628 58.5353C69.0234 58.3013 69.5494 57.9464 70.041 57.4706L71.4234 59.1905C70.0486 60.4697 68.3629 61.1093 66.3664 61.1093ZM68.267 51.3927C67.7216 50.8274 67.0075 50.5447 66.1244 50.5445C65.2643 50.5445 64.5443 50.8331 63.9646 51.4103C63.3845 51.9875 63.0179 52.7636 62.8644 53.7386H69.2001C69.1234 52.7402 68.8123 51.9582 68.267 51.3927Z" fill="#111928"/>
<path d="M74.8607 50.7794H72.4648V48.6149H74.8607V45.035H77.372V48.6149H81.0122V50.7794H77.372V56.2665C77.372 57.179 77.5256 57.8303 77.8327 58.2203C78.1398 58.6104 78.6658 58.8054 79.4111 58.8053C79.7411 58.8053 80.0214 58.7915 80.252 58.7642C80.4824 58.7369 80.7356 58.7 81.0122 58.6532V60.7941C80.6968 60.8867 80.3753 60.9569 80.0503 61.0046C79.6784 61.0601 79.303 61.0876 78.9271 61.0865C76.2162 61.0865 74.8607 59.5812 74.8607 56.5706V50.7794Z" fill="#111928"/>
<path d="M94.096 60.8166H91.6309V59.1084C91.1931 59.7482 90.6364 60.2414 89.9607 60.5885C89.2847 60.9354 88.5169 61.1089 87.6568 61.1091C86.597 61.1091 85.6582 60.8342 84.8402 60.2843C84.0223 59.7344 83.3791 58.9778 82.9108 58.0146C82.4423 57.0513 82.208 55.9496 82.208 54.7095C82.208 53.4617 82.4462 52.358 82.9224 51.3984C83.3983 50.4392 84.0569 49.6867 84.8979 49.1405C85.7388 48.5947 86.7044 48.3217 87.7949 48.3217C88.6167 48.3217 89.3538 48.4835 90.0067 48.8072C90.6507 49.1236 91.2084 49.5955 91.6309 50.1818V48.6142H94.096V60.8166ZM91.5849 52.8845C91.316 52.1903 90.8915 51.6423 90.3119 51.2405C89.7321 50.8389 89.0619 50.6381 88.3018 50.6381C87.2267 50.6381 86.3703 51.0047 85.733 51.7377C85.0955 52.4709 84.7768 53.4615 84.7768 54.7095C84.7768 55.9653 85.0841 56.9598 85.6985 57.6929C86.3128 58.4261 87.1461 58.7927 88.1981 58.7927C88.9737 58.7927 89.6648 58.5899 90.2716 58.1841C90.8782 57.7788 91.316 57.2328 91.5849 56.5463V52.8845Z" fill="#111928"/>
<path d="M28.2256 43.8845C26.1321 43.8845 24.4956 45.486 23.0142 47.5201C20.9784 44.8876 19.2759 43.8845 17.2387 43.8845C13.0849 43.8845 9.90234 49.3747 9.90234 55.1858C9.90234 58.822 11.6345 61.1155 14.5358 61.1155C16.6239 61.1155 18.1259 60.1157 20.7956 55.3759C20.7956 55.3759 21.9086 53.3797 22.6741 52.0048C22.9426 52.4447 23.225 52.9187 23.5219 53.427L24.7739 55.566C27.2127 59.7109 28.5714 61.1155 31.0338 61.1155C33.8601 61.1155 35.4331 58.7907 35.4331 55.0788C35.4331 48.9943 32.1789 43.8845 28.2256 43.8845ZM18.7598 54.0924C16.5952 57.5386 15.8463 58.3111 14.6411 58.3111C13.4008 58.3111 12.6637 57.2051 12.6637 55.2332C12.6637 51.0145 14.7347 46.701 17.2036 46.701C18.5404 46.701 19.6576 47.485 21.3691 49.9732C19.7441 52.5047 18.7598 54.0924 18.7598 54.0924ZM26.9293 53.6586L25.4324 51.1231C25.0273 50.4539 24.6381 49.838 24.2645 49.2753C25.6137 47.1605 26.7265 46.1067 28.0501 46.1067C30.7996 46.1067 32.9995 50.2184 32.9995 55.2689C32.9995 57.1941 32.3785 58.3111 31.0923 58.3111C29.8594 58.3111 29.2703 57.484 26.9293 53.6586Z" fill="#111928"/>
</g>
</svg>
