<svg width="153" height="42" viewBox="0 0 153 42" fill="none" xmlns="http://www.w3.org/2000/svg">
<path fill-rule="evenodd" clip-rule="evenodd" d="M93.9347 28.901C93.9511 29.0972 94.0001 29.2934 94.0819 29.4815C94.1636 29.6613 94.2699 29.833 94.4089 29.9802C94.8831 30.4788 95.4635 30.6342 96.0358 30.5606C96.3546 30.4952 96.6816 30.3726 97.0086 30.1437C97.3929 29.8575 97.5237 29.5224 97.5564 29.179C97.6136 28.2552 97.6381 27.3232 97.6463 26.3994C97.6463 25.4675 97.6299 24.5437 97.6054 23.767C97.5809 22.9904 97.5564 22.3609 97.5237 21.7232C97.491 21.0937 97.4501 20.4643 97.4256 20.0555C97.401 19.6549 97.3765 19.4751 97.352 19.2952C97.3275 19.1154 97.2948 18.9437 97.2457 18.7638C97.2048 18.5921 97.1558 18.4123 97.1067 18.2651C96.9841 17.8972 96.8288 17.6111 96.4936 17.2759C96.1829 16.9571 95.7742 16.8672 95.3736 17.0062C95.2428 17.0552 95.1283 17.1206 95.0302 17.2187C94.7931 17.4231 94.7196 17.7256 94.6296 17.9954C94.5806 18.1507 94.5479 18.2978 94.5152 18.4613C94.4825 18.6167 94.458 18.772 94.4334 19.0172C94.4089 19.2625 94.3762 19.5977 94.3517 19.9329C94.3272 20.2681 94.3108 20.6032 94.2945 20.9956C94.2536 21.7886 94.1882 22.7451 94.0655 23.628C93.8039 25.3775 93.7631 27.1434 93.9429 28.9092L93.9347 28.901Z" fill="#BFBFBF"/>
<path fill-rule="evenodd" clip-rule="evenodd" d="M122.253 20.9216C121.885 19.589 121.518 18.2483 121.166 16.9076L122.253 20.9216Z" fill="#BFBFBF"/>
<path fill-rule="evenodd" clip-rule="evenodd" d="M122.253 20.9217L122.597 22.385C122.752 23.0636 122.916 23.7421 122.834 23.8566C122.752 23.971 122.425 23.5132 122.098 23.0636C121.861 22.7856 121.64 22.5077 121.133 21.87C120.627 21.2323 119.858 20.235 119.392 19.6464C118.926 19.0578 118.779 18.8779 118.615 18.7062C118.28 18.3383 117.945 18.0195 117.594 17.7334C117.193 17.4391 116.694 17.3655 116.204 17.5944C116.057 17.6598 115.918 17.7579 115.803 17.8724C115.689 17.9868 115.599 18.1258 115.533 18.2729C114.904 19.6137 114.52 20.9871 114.34 22.3605L113.882 24.9766C113.58 26.3091 113.604 27.7071 114.086 29.0969C114.152 29.2358 114.25 29.3748 114.389 29.5138C114.814 29.8899 115.345 29.9961 115.869 29.8326C116.04 29.7836 116.196 29.6937 116.335 29.5874C116.784 29.244 116.899 28.7944 116.972 28.3529C117.218 26.4808 117.43 24.6005 117.659 22.7202C118.46 24.4288 119.49 26.1538 120.855 27.8624C121.346 28.4102 121.828 28.917 122.319 29.105C123.046 29.3993 123.79 29.2685 124.616 28.729C124.788 28.6064 124.943 28.4674 125.09 28.3121C125.376 28.0014 125.622 27.6662 125.826 27.2983C126.496 26.1538 126.603 24.8948 126.554 23.6604C126.521 22.8347 126.415 22.009 126.218 21.1833C126.039 20.4475 125.81 19.7199 125.515 19.0251C125.221 18.322 124.878 17.6516 124.477 17.0058C124.077 16.3599 123.627 15.7468 123.128 15.1745C122.695 14.7086 122.229 14.4797 121.738 14.5205C121.616 14.5369 121.501 14.5778 121.395 14.635C121.003 14.8802 120.896 15.2236 120.929 15.5588C120.986 16.0002 121.068 16.4417 121.174 16.8832L122.262 20.8972L122.253 20.9217Z" fill="#BFBFBF"/>
<path fill-rule="evenodd" clip-rule="evenodd" d="M127.469 19.3517C127.959 19.8913 128.499 20.1365 129.055 20.2346L128.278 21.9351C128.147 21.9678 128.024 22.025 127.918 22.0986C127.387 22.4992 127.297 22.9897 127.452 23.5129C127.493 23.6355 127.559 23.7581 127.64 23.8644C127.125 24.7719 126.659 25.6957 126.512 26.5949C126.398 27.3225 126.684 28.0992 126.994 28.8431C127.125 29.1456 127.281 29.4317 127.428 29.726C127.55 29.9467 127.714 30.1593 127.902 30.331C128.09 30.5026 128.302 30.6498 128.54 30.7643C129.537 31.1894 130.698 31.0994 131.842 30.7152C132.676 30.3964 133.494 30.0367 134.295 29.6524C135.096 29.2682 135.881 28.8431 136.322 28.5897C136.764 28.3362 136.862 28.2626 136.944 28.1727C137.344 27.6904 137.32 27.1181 136.993 26.5213C136.903 26.3742 136.796 26.2434 136.666 26.1289C136.02 25.573 135.243 25.7202 134.507 25.8101C133.723 25.9736 132.962 26.1862 132.186 26.3742C131.385 26.6603 130.575 26.9546 130.42 26.6358C130.256 26.317 130.747 25.3932 131.229 24.4694C131.491 24.5103 131.761 24.5348 132.03 24.5348C132.913 24.5348 133.796 24.5511 134.679 24.5348C134.695 24.5348 134.712 24.5348 134.834 24.4939C135.096 24.4203 135.644 24.2732 136.061 24.1424C136.281 24.0851 136.576 23.8481 136.682 23.6355C136.813 23.3494 136.846 23.006 136.756 22.6872C136.707 22.5319 136.633 22.3847 136.535 22.2539C136.232 21.8533 135.824 21.7634 135.431 21.698C134.491 21.6244 133.543 21.5999 132.594 21.5508L132.684 20.5862C133.445 20.627 134.205 20.6189 134.965 20.5371C136.061 20.4227 137.074 20.2019 138.096 20.0057C138.317 19.9567 138.546 19.8668 138.759 19.6787C139.159 19.3108 139.257 18.943 139.037 18.5015C138.84 18.1745 138.62 17.8475 138.366 17.5368C138.113 17.2507 137.81 17.0054 137.475 16.8092C136.805 16.4087 136.02 16.2288 135.268 16.286C133.208 16.3923 131.213 16.4086 129.112 17.0381C128.605 17.1853 128.114 17.3651 127.632 17.5695C127.395 17.6758 127.272 17.8475 127.191 18.011C127.043 18.3952 127.076 18.8694 127.477 19.3599L127.469 19.3517Z" fill="#BFBFBF"/>
<path fill-rule="evenodd" clip-rule="evenodd" d="M103.025 20.4798C106.14 20.1119 109.247 19.7685 112.361 19.3761C112.672 19.3107 113.056 19.229 113.449 18.8693C113.874 18.4687 113.956 18.1253 113.833 17.7329C113.784 17.5694 113.604 17.3405 113.334 17.1116C113.203 16.9971 113.048 16.899 112.893 16.8255C112.737 16.7437 112.566 16.6865 112.345 16.6293C111.871 16.5148 111.233 16.4167 110.669 16.3595C110.375 16.335 110.08 16.3186 109.525 16.3186C108.96 16.3186 108.127 16.335 107.293 16.4004C105.666 16.5393 104.023 16.8745 102.412 17.4223C101.889 17.6103 101.358 17.8637 100.851 18.2071C100.605 18.3706 100.377 18.5423 100.18 18.7139C99.5263 19.2862 99.2729 19.8258 99.1175 20.4144C99.0603 20.7087 99.0521 21.0112 99.1094 21.3136C99.1666 21.6079 99.2729 21.8941 99.4364 22.1475C99.5999 22.4009 99.8043 22.6217 100.05 22.8015C100.524 23.153 101.112 23.2511 101.668 23.3493C102.756 23.5455 103.867 23.3165 104.963 23.3165C105.968 23.3247 106.99 23.3165 108.004 23.5209C108.462 23.6109 108.903 23.7417 109.345 23.9133C109.778 24.0768 110.195 24.2812 110.596 24.5183C110.882 24.7227 110.923 24.9761 110.816 25.2541C110.735 25.4584 110.26 25.8345 109.909 26.0552C109.77 26.1452 109.615 26.2269 109.467 26.3005C107.113 27.3387 104.611 27.396 102.142 26.5703C102.069 26.5294 101.995 26.4967 101.922 26.3495C101.864 26.186 101.824 25.998 102.077 25.7854C102.322 25.6628 102.592 25.6056 102.854 25.5893C103.328 25.5647 103.974 25.6873 104.579 25.9653C105.551 26.3904 106.639 26.5457 107.685 26.3904C108.208 26.3168 108.723 26.1615 109.206 25.9408C109.312 25.8836 109.41 25.8263 109.508 25.6465C109.574 25.5157 109.598 25.3685 109.565 25.2295C109.525 25.0252 109.337 24.7145 108.977 24.412C108.593 24.1095 108.094 23.9215 107.612 23.7989C107.432 23.758 107.252 23.7253 106.909 23.6844C106.565 23.6436 106.075 23.6109 105.576 23.5863C105.077 23.57 104.579 23.57 104.08 23.5863C103.581 23.6109 103.083 23.6517 102.731 23.7008C102.379 23.7417 102.175 23.7907 101.979 23.8479C101.783 23.9052 101.586 23.9787 101.398 24.0687C101.21 24.1586 101.031 24.2567 100.875 24.363C100.123 24.9025 99.9024 25.4421 99.8288 26.0307C99.8124 26.2024 99.8288 26.3822 99.8697 26.5539C99.9105 26.7256 99.9678 26.8891 100.115 27.1344C100.254 27.3796 100.475 27.6984 100.728 27.9846C100.981 28.2707 101.276 28.5323 101.586 28.7612C101.905 28.9819 102.24 29.1781 102.739 29.3743C103.238 29.5706 103.9 29.7749 104.579 29.9221C105.257 30.0692 105.944 30.151 106.631 30.1673C107.317 30.1837 108.012 30.1428 108.511 30.0856C109.001 30.0284 109.304 29.963 109.598 29.8812C109.892 29.7995 110.179 29.7095 110.465 29.5951C110.751 29.4888 111.029 29.3662 111.258 29.2436C111.495 29.1291 111.683 29.0146 111.863 28.8838C112.043 28.7612 112.214 28.6222 112.378 28.4751C112.901 27.9928 113.187 27.5431 113.359 27.069C113.424 26.8973 113.473 26.7256 113.506 26.4395C113.579 25.8509 113.563 24.9025 113.252 24.1259C113.105 23.7417 112.917 23.3738 112.688 23.0468C112.459 22.7279 112.198 22.4582 111.904 22.2292C111.282 21.7469 110.555 21.4935 109.843 21.4363C108.225 21.2564 106.606 21.1501 104.979 20.8804C104.325 20.7741 103.679 20.6351 103.033 20.5043L103.025 20.4798Z" fill="#BFBFBF"/>
<path fill-rule="evenodd" clip-rule="evenodd" d="M42.8136 23.4964C42.9363 22.6789 43.0834 21.7469 43.3041 20.8231C43.4186 20.3489 43.5576 19.8748 43.6884 19.4578C43.8192 19.0409 43.9336 18.673 44.0317 18.297C44.138 17.9291 44.2279 17.553 44.2852 17.2996C44.3914 16.8254 44.3833 16.7028 44.3833 16.4167C44.3833 16.1878 44.3424 15.9343 44.1871 15.7054C43.8355 15.2149 43.3777 15.1413 42.9199 15.2067C42.5684 15.264 42.2904 15.5746 42.0533 15.8853C41.9552 16.0079 41.8653 16.1387 41.7836 16.2613C41.6936 16.3921 41.6201 16.523 41.4647 16.8173C41.3176 17.1116 41.0968 17.5775 40.9006 18.0435C40.3284 19.3924 39.9033 20.9048 39.6171 22.2946C39.5272 22.7524 39.4618 23.2102 39.4127 23.6762C39.3228 24.5673 39.3146 25.4339 39.331 26.2514C39.331 26.6438 39.3392 27.0362 39.38 27.3878C39.4127 27.7311 39.4782 28.0254 39.5926 28.3034C39.6989 28.5813 39.8542 28.8429 40.0422 29.08C40.4019 29.5215 40.8189 29.8321 41.1541 29.9875C41.7345 30.2572 42.2495 30.2981 42.8463 30.2327C43.6557 30.1428 44.4242 29.7177 45.2335 29.1781C45.4215 29.0473 45.6014 28.9165 45.8712 28.704C46.4107 28.2788 47.1955 27.6167 47.8659 27.0035C47.8414 27.633 47.8496 28.2625 47.8823 28.8838C47.915 29.5133 47.9804 30.1346 48.0376 30.5679C48.0948 31.0012 48.1439 31.2301 48.2093 31.4672C48.3564 31.9577 48.5281 32.3664 48.8142 32.8161C48.9696 33.0531 49.1658 33.3066 49.4029 33.5191C49.6399 33.7317 49.9179 33.8952 50.2204 34.0096C50.5229 34.1241 50.8417 34.1731 51.0542 34.1895C51.2668 34.2058 51.3813 34.1813 51.4875 34.1404C51.6674 34.0587 51.8391 33.9606 51.9944 33.699C52.1334 33.4619 52.2315 33.1512 52.2397 32.8651C52.2397 32.718 52.2396 32.5708 52.2315 32.2847C52.2315 32.0067 52.2315 31.5898 52.2315 31.181C52.2315 30.7641 52.2233 30.3553 52.2233 29.7177C52.2233 29.08 52.2315 28.2216 52.2805 27.3714C52.3786 25.6791 52.6484 23.9787 53.0572 22.2946C53.9401 22.0657 54.823 21.8368 55.3054 21.706C55.7877 21.5752 55.8613 21.5507 55.9349 21.518C56.0084 21.4853 56.082 21.4526 56.1556 21.4117C56.3027 21.3299 56.5398 21.1337 56.7932 20.8721C57.7743 19.8502 58.0114 18.7302 57.5045 17.553C57.3737 17.2178 57.202 16.8745 56.9568 16.5393C56.8423 16.384 56.7197 16.2532 56.5807 16.1305C56.4417 16.0161 56.2782 15.918 56.1147 15.8362C55.943 15.7627 55.7713 15.7054 55.5179 15.6646C55.0192 15.5828 54.2671 15.5828 53.6376 15.8362C53.327 15.9507 53.0408 16.1142 52.583 16.4494C52.1252 16.7846 51.5121 17.2832 50.9234 17.8146C50.2367 17.7574 49.5418 17.6266 48.8633 17.414C48.5281 17.3159 48.2011 17.1933 47.9477 17.087C47.7024 16.9808 47.5389 16.8745 47.3999 16.7519C47.261 16.6292 47.1383 16.4821 47.0484 16.3186C46.9585 16.1551 46.9012 15.9752 46.844 15.8526C46.7214 15.6237 46.6069 15.6155 46.4761 15.5583C46.2963 15.5092 46.19 15.5174 46.0265 15.5583C45.8139 15.6482 45.585 15.7136 45.3725 16.057C45.258 16.245 45.119 16.5311 45.0618 16.7437C45.0046 16.9562 45.0128 17.1034 45.0373 17.3323C45.0618 17.5612 45.0945 17.88 45.1844 18.1825C45.3807 18.7875 45.7158 19.2453 46.3862 19.7113C46.7214 19.9483 47.1547 20.2181 47.5961 20.4716C48.0376 20.7332 48.4791 20.9784 48.9287 21.2155C48.6099 22.3355 48.3646 23.4637 48.1847 24.6L46.8849 24.4774L43.8601 25.4911C43.5167 25.6464 43.1243 25.6628 42.7401 25.4748C42.4703 25.2867 42.4212 25.0333 42.6174 24.7717L42.6583 24.6409C42.6992 24.2648 42.7564 23.8888 42.8136 23.4882V23.4964Z" fill="#BFBFBF"/>
<path fill-rule="evenodd" clip-rule="evenodd" d="M14.5525 13.7273H14.5361L15.0839 13.948C14.9122 13.8336 14.7078 13.7518 14.5607 13.7273H14.5525Z" fill="#BFBFBF"/>
<path fill-rule="evenodd" clip-rule="evenodd" d="M39.1769 26.6601C39.1688 26.1777 39.1524 25.6872 39.1442 25.3766C39.1361 25.0577 39.1197 24.9106 39.1034 24.7634C39.087 24.6163 39.0625 24.4691 38.8581 23.3655C38.6455 22.2618 38.2531 20.1935 38.0079 18.9754C37.7626 17.7573 37.6727 17.3976 37.5664 17.0379C37.362 16.3348 37.0922 15.6318 36.7489 14.945C36.6835 14.8469 36.6017 14.757 36.5036 14.6834C36.4055 14.6099 36.2911 14.5608 36.1766 14.5281C35.9395 14.4627 35.5798 14.5118 35.2201 14.6426C35.0321 14.7161 34.8522 14.8224 34.6969 14.9614C34.3372 15.2639 34.1328 15.7626 33.7976 16.155C33.6178 16.3921 33.4216 16.6128 33.209 16.8662C32.9883 17.1196 32.743 17.4058 32.5141 17.7083C32.2852 18.0107 32.0727 18.3214 31.7538 18.8201C31.435 19.3188 31.0099 20.0055 30.6175 20.7085C30.2169 21.4116 29.8408 22.1229 29.4975 22.8504L28.541 22.7687C29.0724 21.1827 29.4239 19.564 29.5956 17.9453C29.7754 16.2776 29.7754 14.5118 29.5384 12.7132C29.4157 11.7976 29.2195 10.8983 28.9497 10.0154C28.68 9.1325 28.3448 8.27411 28.075 7.65279C27.8052 7.03966 27.609 6.67177 27.3883 6.31207C27.1757 5.95236 26.9468 5.60082 26.6934 5.26564C26.4481 4.93046 26.1783 4.60345 25.8432 4.21922C25.508 3.83498 25.0992 3.39353 24.6905 2.95207C24.2817 2.51061 23.8648 2.06914 23.5459 1.75849C23.2271 1.44783 22.9982 1.26798 22.7529 1.11265C22.5077 0.957326 22.2461 0.834694 21.9681 0.744767C21.6901 0.65484 21.4122 0.597615 21.2242 0.57309C20.8972 0.532214 20.8072 0.573087 20.6192 0.679365C20.3494 0.859218 20.2677 1.0963 20.3494 1.34156C20.3658 1.39878 20.3985 1.44783 20.5701 1.66039C20.7418 1.87294 21.0688 2.249 21.3877 2.62506C21.9926 3.35265 22.524 4.03937 22.8756 4.67703C23.0554 4.97951 23.2189 5.29834 23.4151 5.7071C23.6113 6.12403 23.8484 6.63907 24.0773 7.15411C24.5188 8.15965 24.9275 9.10797 25.1891 10.0154C25.3118 10.4569 25.418 10.9065 25.4916 11.3561C25.5652 11.8058 25.6143 12.2636 25.6388 12.7704C25.7124 14.3237 25.6388 16.0487 25.3772 17.6837C25.1319 19.2615 24.6496 20.872 23.8484 22.4744C23.4642 23.2183 23.0064 23.9214 22.4831 24.5754C21.9599 25.2294 21.3713 25.8262 20.7255 26.3658C20.0796 26.9053 19.3847 27.3713 18.649 27.7719C18.1176 28.0662 17.5535 28.2624 16.9894 28.3523C16.7033 28.4014 16.409 28.4259 16.1637 28.4259C15.6977 28.4259 15.3625 28.3605 14.9783 28.2052C14.7984 28.1316 14.6268 28.0417 14.4633 27.9354C14.2916 27.8209 14.1363 27.682 14.0055 27.5185C13.7357 27.1833 13.6049 26.7664 13.6049 26.3658C14.03 26.0142 14.4387 25.6382 14.8393 25.2539C15.2399 24.8697 15.616 24.4609 15.9839 24.044C16.6951 23.2347 17.2919 22.4417 17.7497 21.7059C17.9704 21.3462 18.183 20.9783 18.3792 20.6023C18.5754 20.2262 18.7634 19.842 18.9515 19.3106C19.1395 18.771 19.3193 18.0843 19.4011 17.3731C19.4828 16.67 19.4665 15.9506 19.3439 15.2475C19.2212 14.5445 19.0087 13.8659 18.8207 13.3999C18.6326 12.9421 18.4855 12.6969 18.3056 12.4843C18.1258 12.2718 17.9132 12.0837 17.6843 11.9366C16.924 11.4542 16.0329 11.348 15.1663 11.4215C14.872 11.4543 14.5777 11.5033 14.0709 11.6913C13.564 11.8712 12.8527 12.1818 12.2069 12.6069C11.5611 13.0239 10.9806 13.5471 10.4983 14.1521C10.0159 14.757 9.63989 15.4356 9.38645 15.9833C9.13302 16.531 9.00222 16.9398 8.88777 17.3486C8.54441 18.534 8.27463 19.8256 8.24193 21.0356C8.23375 21.428 8.24192 21.8285 8.29098 22.221C8.33185 22.6134 8.40543 23.0058 8.51171 23.7334C8.61798 24.4691 8.77331 25.5401 8.91229 26.6192C8.62616 26.938 8.26645 27.1261 7.90674 27.2078C7.71054 27.2487 7.51433 27.265 7.1955 27.2078C6.87666 27.1588 6.42703 27.0443 6.01827 26.8563C5.60951 26.6682 5.23345 26.3985 4.90644 26.0796C4.5876 25.7608 4.31782 25.3847 4.12162 24.976C3.69651 24.1258 3.69651 23.1611 3.67198 22.2373C3.67198 21.755 3.68833 21.2808 3.72921 20.8066C3.77008 20.3325 3.83548 19.8583 3.95811 19.2288C4.08074 18.6075 4.25242 17.8309 4.44045 17.0624C4.63666 16.2939 4.84921 15.5255 5.14352 14.6671C5.43783 13.8005 5.82206 12.844 6.2717 11.9121C6.72951 10.9883 7.25272 10.0972 7.85769 9.25513C8.45448 8.41308 9.12485 7.62827 9.57448 7.12958C10.0159 6.6309 10.2367 6.41834 10.4492 6.21396C10.67 6.00141 10.8825 5.79703 11.0378 5.64987C11.3485 5.35557 11.4548 5.23294 11.6183 5.02856C11.978 4.57075 12.1252 4.27645 11.8717 3.85951C11.7082 3.62243 11.4793 3.58156 11.2668 3.56521C11.185 3.56521 11.1114 3.56521 10.9234 3.62243C10.5555 3.72871 9.90149 3.98214 9.37828 4.2928C8.76514 4.66068 8.20105 5.10214 7.62878 5.53542C7.30178 5.78885 6.97477 6.05046 6.69681 6.29571C6.11637 6.7944 5.69943 7.23586 5.2825 7.71819C5.06994 7.97162 4.86556 8.22505 4.54673 8.69104C4.2279 9.15702 3.78643 9.82739 3.38585 10.5141C2.98526 11.209 2.61738 11.9202 2.29037 12.6478C1.96336 13.3754 1.66905 14.1275 1.43197 14.8142C1.19489 15.501 1.00686 16.1304 0.835182 16.7681C0.663502 17.4058 0.508173 18.0434 0.401895 18.5585C0.181165 19.5722 0.0994125 20.2426 0.0421861 21.0683C-0.0722669 22.6215 0.0258357 24.1503 0.589925 25.7526C0.728904 26.1205 0.892408 26.472 1.10496 26.8072C1.30934 27.1342 1.56278 27.4449 1.84073 27.7147C2.413 28.2624 3.05884 28.6385 3.66381 28.9164C3.97446 29.0554 4.28512 29.1862 4.61213 29.3007C5.51958 29.6113 6.35345 29.783 7.20367 29.6113C7.94762 29.4642 8.56076 29.1453 9.18207 29.0145C9.38645 28.9655 9.59083 28.9246 9.79521 28.8837C10.0323 29.1617 10.2776 29.4315 10.5228 29.7012C10.7681 29.971 11.0133 30.2408 11.3567 30.5678C11.7 30.8948 12.1415 31.2709 12.632 31.5815C13.1225 31.8922 13.6539 32.1293 14.2098 32.3009C14.7657 32.4726 15.3462 32.5789 16.131 32.5871C16.9158 32.5871 17.905 32.5053 18.8779 32.2928C19.8426 32.0802 20.7827 31.745 21.6656 31.2954C22.5404 30.8458 23.3579 30.2735 23.922 29.8402C24.4861 29.4069 24.7967 29.1045 25.0992 28.7938C25.4017 28.4831 25.7042 28.1725 25.9903 27.8455C26.2764 27.5185 26.5544 27.1833 26.7588 26.9217C27.1594 26.3985 27.3474 26.0878 27.5763 25.6709C27.6908 25.4665 27.7889 25.2539 27.887 25.0414L28.7617 25.2948L27.9115 28.0417C27.7643 28.5077 27.7316 29.0227 27.8543 29.5214C27.9115 29.7666 28.0014 29.9955 28.1159 30.1999C28.2303 30.4043 28.3611 30.576 28.5246 30.715C28.8598 31.0011 29.3094 31.1401 29.7264 31.0992C29.9389 31.0828 30.1515 31.0174 30.2986 30.952C30.454 30.8866 30.5439 30.8131 30.6338 30.7313C31.0508 30.3634 31.157 29.9547 31.3287 29.5459C31.6557 28.6957 31.9991 27.8455 32.3016 27.0034C32.3424 26.889 32.367 26.7745 32.3997 26.6601L35.9395 26.5947C35.9804 27.0198 36.0213 27.4449 36.0458 27.682C36.0703 27.9272 36.0785 27.9844 36.0949 28.0499C36.1112 28.1153 36.1194 28.1725 36.1439 28.2297C36.1603 28.2869 36.1848 28.3523 36.242 28.4831C36.2993 28.6139 36.3974 28.8183 36.4955 29.0145C36.5936 29.2107 36.708 29.4069 36.7979 29.5623C37.0105 29.8893 37.174 30.0201 37.3784 30.1427C37.8198 30.3798 38.2613 30.5106 38.7355 29.8729C38.8744 29.6685 38.9398 29.5296 38.9971 29.3334C39.0706 29.0963 39.1361 28.7774 39.1606 28.4995C39.1769 28.3523 39.1851 28.2052 39.1851 27.8945C39.1851 27.5757 39.1851 27.0934 39.1688 26.611L39.1769 26.6601ZM12.771 23.1693C12.6565 22.7278 12.5666 22.27 12.5094 21.8122C12.3949 20.8802 12.4031 20.0137 12.5339 18.9999C12.5993 18.4849 12.7056 17.9126 12.82 17.3486C12.9427 16.7845 13.0817 16.2204 13.1798 15.8525C13.2779 15.4846 13.3351 15.3129 13.4005 15.1413C13.5231 14.8061 13.6784 14.4709 13.8665 14.1439C13.9073 14.0703 13.9646 13.9967 14.03 13.9395C14.1853 13.8087 14.2998 13.7024 14.5368 13.7269L14.496 13.7106C14.7085 13.6779 14.9211 13.7351 15.0764 13.9477C15.2399 14.1684 15.3462 14.3973 15.4116 14.6344C15.5342 15.2966 15.5342 15.8852 15.5015 16.531C15.4852 16.7845 15.4688 17.0379 15.4116 17.4221C15.3625 17.8064 15.2808 18.305 15.1745 18.8119C15.0764 19.3106 14.962 19.8174 14.823 20.2507C14.6922 20.684 14.5368 21.0601 14.3488 21.4034C14.1608 21.755 13.9237 22.082 13.6621 22.3763C13.3923 22.6706 13.098 22.9404 12.771 23.1693ZM35.2692 22.8341C34.8768 23.1284 34.5171 23.0548 34.2391 22.7033C34.5089 22.1637 34.7868 21.616 35.0566 21.0764L35.4163 22.6542C35.3755 22.7196 35.3264 22.785 35.2692 22.8341Z" fill="#BFBFBF"/>
<path fill-rule="evenodd" clip-rule="evenodd" d="M93.5915 19.794C93.0928 18.3062 92.4061 16.7856 91.2044 15.3059C90.7302 14.6519 90.2234 14.0305 89.6838 13.4256C89.1442 12.8288 88.5801 12.2565 87.9833 11.7088C87.3866 11.1692 86.7652 10.6542 86.1194 10.1719C85.4572 9.62412 84.7705 9.10091 84.0674 8.60222C83.3643 8.10354 82.6449 7.62938 81.9173 7.18792C81.1816 6.73829 80.4294 6.32135 79.6692 5.92894C77.8052 4.98062 75.8595 4.18763 73.8648 3.56632C69.8507 2.30734 65.6487 1.74325 61.4875 1.87406C60.0405 1.89041 58.5853 2.10296 57.1137 2.56895C56.6478 2.72427 56.1981 2.90412 55.7648 3.1085C55.3234 3.31288 54.8983 3.54996 54.4895 3.80339C54.0807 4.05682 53.6802 4.33478 53.3041 4.63726C52.8381 4.98062 52.7645 5.40573 52.9362 5.86354C53.0261 6.11697 53.3286 6.3377 53.6229 6.4685C53.7701 6.54208 53.9908 6.59931 54.2361 6.62383C54.8737 6.66471 55.5932 6.45215 56.3044 6.02704C56.4679 5.91259 56.7213 5.68369 56.6478 5.46296C56.6396 5.36486 56.5006 5.19317 56.3616 5.17682C56.1245 5.1196 55.8711 5.12777 55.6177 5.22588C56.0755 4.9234 56.566 4.71084 57.0565 4.58821C57.3099 4.52281 57.5716 4.48193 58.2092 4.44923C58.8469 4.41653 59.8524 4.38383 60.858 4.40836C62.8364 4.46559 64.8475 4.75989 66.8259 5.26675C68.5345 5.75726 70.2186 6.305 71.8863 6.90996C73.5541 7.5231 75.1973 8.19346 76.3418 8.69215C77.4945 9.19083 78.1486 9.50967 78.7944 9.8612C79.4402 10.2127 80.0616 10.5888 80.6747 10.9894C81.2878 11.39 81.8765 11.8232 82.4487 12.2729C83.16 12.8615 83.8712 13.4501 84.5498 14.0796C85.2201 14.7091 85.8578 15.3794 86.4955 16.0498C86.8306 16.4177 87.1495 16.8101 87.4356 17.2189C88.0406 18.0691 88.5147 18.952 88.8744 19.8513C89.1197 20.4317 89.2587 21.0448 89.2914 21.6743C89.3159 22.3038 89.2341 22.9333 89.0461 23.5301C88.8581 24.1269 88.5556 24.691 88.1714 25.1815C87.7871 25.672 87.313 26.0971 86.5527 26.5549C85.7924 27.0127 84.746 27.5032 83.6668 27.8875C81.4922 28.6723 79.1786 29.032 76.9059 28.9584C75.4017 28.9012 73.8975 28.7622 72.3932 28.5496L72.3115 20.4154C75.2137 20.6606 78.1404 21.2492 81.0589 22.2384C80.92 22.5082 80.7565 22.7698 80.3967 23.0478C80.1924 23.2031 79.9962 23.3748 79.8 23.571C79.6855 23.7263 79.661 23.9225 79.7345 24.1105C79.7591 24.1678 79.8 24.225 79.8735 24.2986C79.9553 24.3721 80.0697 24.4621 80.1924 24.5356C80.5357 24.7318 81.0017 24.8218 81.4922 24.7972C82.2362 24.7318 82.9065 24.3558 83.626 23.6609C83.8303 23.4565 84.002 23.2113 84.1328 22.9497C84.5906 22.0013 84.5743 20.8732 83.7486 19.794C83.6014 19.5978 83.4297 19.418 83.2499 19.2545C83.07 19.091 82.8657 18.9438 82.6613 18.8212C81.5086 18.1672 80.2986 17.6848 79.0887 17.3742C78.4674 17.2107 77.8297 17.0962 77.1267 16.9981C75.696 16.7856 74.0528 16.6466 72.5077 16.6302C72.475 15.7473 72.385 14.8644 72.2379 13.9815C72.1643 13.54 72.0744 13.1067 72.0008 12.8043C71.9272 12.5018 71.8782 12.3219 71.8209 12.1421C71.7637 11.9704 71.6901 11.7987 71.6411 11.6679C71.543 11.4227 71.4776 11.3 71.3795 11.1284C71.265 10.8994 70.9707 10.597 70.6928 10.4825C70.4148 10.3599 70.1123 10.319 69.769 10.6542C69.7117 10.7196 69.6627 10.785 69.63 10.8667C69.3357 11.5862 69.115 12.3138 68.9678 13.0495C68.8942 13.4256 68.837 13.8016 68.7798 14.2513C68.6653 15.1587 68.5345 16.2624 68.3628 17.2761C66.973 17.4396 65.5914 17.7094 64.2262 18.1018C63.5885 18.2898 62.9508 18.5269 62.3214 18.813C62.0107 18.952 61.7082 19.1073 61.4548 19.2463C60.9724 19.5079 60.6046 19.7613 60.1958 20.0883C60.0078 20.2437 59.8197 20.4072 59.6481 20.5789C59.1167 21.1429 58.945 21.8215 59.0267 22.4918C59.1085 23.0396 59.3619 23.5219 59.738 24.0451C59.8443 24.1841 59.9505 24.3149 60.1631 24.5356C60.3757 24.7564 60.6863 25.0752 61.0051 25.394C61.6183 25.999 62.1906 26.5385 62.7301 26.9718C62.9917 27.1844 63.2533 27.3806 63.5231 27.5768C63.7929 27.7648 64.0708 27.9529 64.5287 28.2308C64.9865 28.5169 65.6241 28.893 66.27 29.2772C66.9076 29.6615 67.5535 30.0375 68.1993 30.4054C68.232 30.5526 68.2647 30.6915 68.2974 30.855C68.3301 31.0185 68.371 31.1902 68.4282 31.4437C68.4855 31.6889 68.559 32.0159 68.6408 32.3348C68.6898 32.531 68.7716 32.719 68.886 32.8907C69.0005 33.0623 69.1395 33.2177 69.2948 33.3403C69.8262 33.7491 70.472 33.8226 71.0525 33.6182C71.265 33.5447 71.4939 33.4221 71.6901 33.2667C71.8863 33.1114 72.058 32.9234 72.197 32.7108C72.336 32.4983 72.4341 32.2612 72.4913 32.0159C73.2925 32.1304 74.0855 32.2203 74.8867 32.2939C75.6878 32.3675 76.489 32.4247 77.1675 32.4492C78.4919 32.5064 79.4811 32.4655 80.6093 32.3511C82.1462 32.1794 83.8222 31.8606 85.3673 31.272C86.3728 30.8959 87.3457 30.4136 88.2613 29.8495C89.1769 29.2854 90.0435 28.6314 90.8365 27.9038C91.1226 27.634 91.3924 27.3479 91.654 27.0454C92.1936 26.4159 92.635 25.7619 92.9947 25.0916C93.9185 23.4647 94.1393 21.6171 93.6079 19.794H93.5915ZM65.0273 26.2524C64.5532 26.0153 64.0954 25.7374 63.6866 25.4676C63.286 25.1978 62.9345 24.9444 62.5911 24.6746C62.256 24.4048 61.9289 24.1187 61.6183 23.808C61.3076 23.5056 61.0133 23.1867 60.8498 22.9905C60.6863 22.8025 60.6536 22.7371 60.6373 22.6717C60.58 22.4673 60.6291 22.2629 60.8008 22.0994C60.8498 22.0504 60.9152 22.0177 61.1768 21.9114C61.4466 21.8051 61.9208 21.6335 62.4031 21.4945C62.8854 21.3473 63.376 21.2247 63.8011 21.1348C64.2262 21.0448 64.5777 20.9876 64.8311 20.9467C65.0846 20.9059 65.2236 20.8977 65.5179 20.865C65.8122 20.8405 66.2536 20.8078 66.6951 20.7751C67.1366 20.7505 67.578 20.7342 68.0195 20.7342V27.2498C67.0057 27.0618 65.992 26.7266 65.0192 26.2361L65.0273 26.2524Z" fill="#BFBFBF"/>
<path fill-rule="evenodd" clip-rule="evenodd" d="M106.1 7.44084C106.06 7.11383 105.986 6.90128 105.88 6.70507C105.773 6.50887 105.634 6.32901 105.479 6.17368C104.94 5.66682 104.277 5.51967 103.623 5.65865C103.558 5.49515 103.468 5.33982 103.354 5.20901C103.108 4.91471 102.789 4.74303 102.479 4.66946C101.907 4.5223 101.318 4.44873 100.737 4.44055C100.443 4.44055 100.149 4.44873 99.6093 4.5223C99.0697 4.59588 98.2931 4.73486 97.5328 4.95559C96.7725 5.17632 96.0449 5.47062 95.3418 5.83851C94.6387 6.20639 93.9766 6.6315 93.3552 7.12201C93.1018 7.32639 92.8647 7.55529 92.644 7.79237C91.6957 8.84697 91.1316 9.99967 91.1152 11.1197C91.1152 11.414 91.1316 11.7083 91.1725 11.9535C91.246 12.4195 91.3523 12.7384 91.5076 13.1226C91.663 13.5068 91.9082 13.9483 92.1617 14.4306C92.3006 14.6922 92.4396 14.9457 92.5377 15.1255C92.6276 15.2972 92.6767 15.3871 92.7421 15.4689C92.8075 15.5424 92.8811 15.6078 92.971 15.6651C93.1672 15.7877 93.5024 15.804 93.8458 15.7632C94.042 15.7305 94.23 15.6732 94.4017 15.5833C94.5815 15.4934 94.7369 15.3789 94.8758 15.2236C95.0066 15.0683 95.1129 14.8639 95.2437 14.823C95.3745 14.7821 95.5298 14.9048 95.6852 14.9947C95.8405 15.0846 96.004 15.1337 96.1675 15.1664C96.331 15.1991 96.5027 15.2154 96.7725 15.2154C97.0423 15.2154 97.4101 15.1991 97.729 15.1827C98.0478 15.1664 98.3176 15.1419 98.4974 15.1173C98.6855 15.0928 98.7836 15.0765 99.0043 15.0356C99.4621 14.9538 100.271 14.774 100.917 14.5042C101.571 14.2508 102.332 13.8175 103.108 13.1962C103.909 12.5585 104.613 11.7737 105.128 11.0216C105.683 10.2286 105.986 9.44376 106.092 8.62624C106.149 8.20113 106.141 7.76785 106.109 7.44084H106.1ZM95.4563 9.51733C94.884 10.0405 94.3444 10.6046 93.8458 11.2014C93.9602 10.7436 94.1319 10.3022 94.3608 9.89339C94.5897 9.48463 94.8758 9.10857 95.2028 8.77339C95.5298 8.43821 95.9059 8.15208 96.3147 7.92317C97.312 7.35908 98.3012 7.04025 99.2904 6.87675C98.5956 7.22828 97.9252 7.6207 97.2875 8.06215C96.6498 8.50361 96.0367 8.98595 95.4644 9.50916L95.4563 9.51733ZM103.076 9.23938C103.01 9.59908 102.855 9.95879 102.593 10.2613C102.471 10.4084 102.323 10.5392 102.168 10.6455C101.776 10.9071 101.375 11.1605 100.966 11.3976C100.149 11.8391 99.3395 12.2805 98.4729 12.444C97.6145 12.6157 96.7234 12.5748 95.8977 12.3459C96.3065 11.7573 96.7725 11.2096 97.3039 10.7191C97.8271 10.2286 98.4075 9.80347 99.0207 9.43558C99.642 9.07588 100.296 8.77339 100.975 8.55266C101.49 8.38916 102.013 8.35646 102.511 8.43821C102.642 8.46274 102.781 8.51996 102.888 8.63441C103.084 8.84697 103.1 9.04318 103.067 9.2312L103.076 9.23938Z" fill="#BFBFBF"/>
<path fill-rule="evenodd" clip-rule="evenodd" d="M152.968 21.9191C152.952 21.4204 152.878 20.9299 152.731 20.4558C152.592 19.9816 152.388 19.5238 152.126 19.1069C151.865 18.6817 151.554 18.2975 151.194 17.9623C150.499 17.3655 149.641 17.202 148.791 17.4555C148.521 17.5372 148.259 17.668 147.605 18.1667C146.943 18.6654 145.88 19.5238 144.85 20.4149C143.82 21.3142 142.823 22.2461 141.866 23.219C142.079 22.5895 142.324 21.9682 142.61 21.3632C142.888 20.7582 143.199 20.1696 143.436 19.7363C143.673 19.3031 143.828 19.0169 143.967 18.7308C144.106 18.4365 144.237 18.1422 144.311 17.9296C144.466 17.5209 144.466 17.3492 144.466 17.0712C144.466 16.9404 144.441 16.8096 144.409 16.7115C144.384 16.6134 144.352 16.5399 144.302 16.4826C143.992 16.0984 143.55 16.2455 143.158 16.5072C143.076 16.5644 143.003 16.6298 142.831 16.8015C142.659 16.9731 142.398 17.2511 142.144 17.529C141.891 17.807 141.637 18.0931 141.384 18.3793C141.008 18.8289 140.656 19.3112 140.329 19.8018C140.01 20.3004 139.716 20.8155 139.463 21.3469C139.209 21.8782 138.989 22.426 138.85 22.8102C138.711 23.1863 138.653 23.3988 138.613 23.6114C138.572 23.8239 138.539 24.0365 138.523 24.249C138.506 24.4616 138.498 24.6823 138.523 24.9603C138.555 25.5244 138.653 26.2765 138.833 26.9387C138.923 27.2739 139.029 27.6009 139.144 27.9197C138.678 28.9089 138.269 29.9308 137.909 30.9609C137.55 31.9991 137.247 33.0537 137.002 34.1165C136.757 35.1874 136.577 36.2666 136.487 36.9206C136.397 37.5746 136.389 37.7953 136.405 38.0242C136.471 39.0052 136.937 40.0026 137.885 41.0082C138.531 41.6131 139.332 41.5886 140.141 40.9182C140.566 39.2587 141.008 37.6154 141.4 35.9559L141.801 34.6315C141.932 34.1901 142.136 33.7731 142.398 33.1273C142.659 32.4814 143.011 31.6231 143.362 30.7647C143.763 30.6911 144.163 30.6093 144.564 30.5194C144.965 30.4295 145.357 30.3314 145.692 30.2414C146.322 30.0698 146.788 29.8817 147.319 29.6038C147.564 29.473 147.81 29.3258 148.128 29.1051C148.447 28.8844 148.848 28.5901 149.232 28.2794C149.625 27.9687 150.001 27.6499 150.319 27.3556C150.982 26.7506 151.399 26.2356 151.807 25.6552C152.698 24.3799 153.058 23.1944 152.993 21.9273L152.968 21.9191ZM149.641 23.7585C149.428 24.1019 149.159 24.4125 148.848 24.6742C148.292 25.132 147.728 25.5407 147.147 25.9168C146.665 26.2111 146.191 26.1947 145.782 26.0231C146.052 25.4099 146.371 24.805 146.714 24.2327C147.066 23.6523 147.45 23.1045 147.875 22.5731C148.292 22.0417 148.75 21.5431 149.232 21.0771C149.469 20.8563 149.674 20.8727 149.862 20.9299C150.05 20.979 150.254 21.2651 150.246 21.445C150.287 22.2379 150.082 23.0555 149.641 23.7585Z" fill="#BFBFBF"/>
</svg>
