<svg width="32" height="32" viewBox="0 0 32 32" fill="none" xmlns="http://www.w3.org/2000/svg">
<g opacity="0.3" clip-path="url(#clip0_1167_9212)">
<path d="M32 32H0V0H32V32ZM22.2988 5.48385L20.1521 13.6117C19.3372 10.5126 18.5893 7.70984 18.4641 7.24948C18.1378 6.05887 17.3441 5.48561 16.1711 5.48561H13.9821L11.8408 13.617L9.70125 5.48385L4.90001 6.04299C4.90001 6.04299 7.5458 16.0829 8.01852 17.905C8.3272 19.0709 8.94455 19.8593 10.1228 20.1786C11.3416 20.5102 13.8516 21.2563 13.8516 21.2563L15.9965 13.1002C16.6473 15.5696 17.1447 17.3882 17.3388 18.1025C17.6298 19.1608 18.3301 19.8487 19.5507 20.2068C21.1999 20.6919 23.0907 21.2563 23.0907 21.2563L27.1 6.01124L22.2988 5.48385ZM18.5117 24.777C17.7533 24.777 17.3053 25.158 17.1271 25.6713C16.9772 25.0486 16.4092 24.777 15.8095 24.777C15.0546 24.777 14.4813 25.225 14.3526 25.9235V23.8121H13.3366V27.6221H14.3526V26.5779C14.4796 27.3134 15.0369 27.6926 15.7778 27.6926C16.4127 27.6926 16.9366 27.3769 17.1306 26.8107C17.307 27.3205 17.7568 27.6926 18.5117 27.6926C19.5277 27.6926 19.9846 27.0047 19.9846 26.2357C19.9846 25.4667 19.526 24.777 18.5117 24.777ZM16.2187 26.5214C16.2155 26.6331 16.1682 26.739 16.0873 26.8159C16.0064 26.8929 15.8983 26.9348 15.7866 26.9324C15.4585 26.9324 15.3386 26.6767 15.3386 26.2269C15.3386 25.89 15.4215 25.5213 15.8077 25.5213C16.0476 25.5213 16.1923 25.6818 16.1923 25.9588H17.053C17.0248 26.1423 17.0248 26.3291 17.053 26.5126L16.2187 26.5214ZM18.5117 26.9324C18.1113 26.9324 18.0531 26.5267 18.0531 26.2269C18.0531 25.927 18.1113 25.5213 18.5117 25.5213C18.9121 25.5213 18.9703 25.9217 18.9703 26.2269C18.9703 26.532 18.9104 26.9324 18.5117 26.9324ZM25.92 27.0241C25.5866 27.0241 25.4049 26.7948 25.3785 26.4632H27.3734C27.3734 25.3908 26.9042 24.777 25.8635 24.777C25.5441 24.766 25.2306 24.8652 24.9757 25.0579C24.7207 25.2506 24.5397 25.525 24.463 25.8353V25.7171C24.463 25.2691 24.2284 24.7823 23.5405 24.7823C23.3972 24.7746 23.2538 24.7956 23.1187 24.844C22.9836 24.8925 22.8596 24.9674 22.7538 25.0645C22.7394 25.0796 22.7258 25.0955 22.7133 25.1121C22.6621 25.1668 22.6339 25.2038 22.6145 25.225C22.5469 25.0902 22.4427 24.9772 22.3139 24.8989C22.1851 24.8206 22.0368 24.7802 21.886 24.7823C21.7129 24.771 21.5399 24.8061 21.3849 24.8839C21.2299 24.9617 21.0984 25.0795 21.0041 25.225H20.9882V24.8511H19.9846V27.6203H21.0006V26.121C21.0006 25.8282 21.0887 25.6095 21.3533 25.6095C21.6814 25.6095 21.7061 25.86 21.7061 26.121V27.6203H22.7274V26.121C22.7274 25.8282 22.8156 25.6095 23.0801 25.6095C23.4029 25.6095 23.4329 25.86 23.4329 26.121V27.6203H24.4489V26.6731C24.6253 27.3275 25.1756 27.6909 25.8953 27.6909C26.5214 27.6909 27.0841 27.4192 27.2975 26.8319H26.3521C26.2988 26.8962 26.2311 26.9469 26.1545 26.98C26.0778 27.0132 25.9945 27.0277 25.9111 27.0224L25.92 27.0241ZM25.9094 25.4367C25.9745 25.4342 26.0395 25.4452 26.1001 25.4691C26.1608 25.493 26.2158 25.5292 26.2617 25.5755C26.3076 25.6217 26.3435 25.677 26.3669 25.7378C26.3904 25.7986 26.4009 25.8637 26.398 25.9288H25.3838C25.4261 25.6078 25.6095 25.4384 25.9006 25.4384L25.9094 25.4367ZM12.0313 25.7312C11.8549 25.1156 11.3928 24.7752 10.6202 24.7752C10.3568 24.7664 10.0963 24.8323 9.86881 24.9653C9.64128 25.0982 9.456 25.2928 9.33436 25.5266L9.54603 24.844H8.46654L8.08731 26.5673H8.06614L7.70103 24.844H6.74678L6.394 26.5673H6.37813L5.97244 24.844H4.91412L5.75725 27.6133H6.80498L7.21067 25.9006H7.23184L7.62694 27.6133H8.67468L9.17209 26.0152C9.16113 26.0894 9.15523 26.1642 9.15445 26.2392C9.15445 27.1617 9.7912 27.6856 10.6555 27.6856C11.2499 27.6856 11.7861 27.4387 12.0225 26.9095V27.615H13.0385V23.8121H12.0225L12.0313 25.7312ZM10.6643 25.4367C10.7287 25.4354 10.7927 25.4473 10.8523 25.4718C10.9119 25.4962 10.9659 25.5326 11.0108 25.5788C11.0558 25.6249 11.0908 25.6798 11.1137 25.74C11.1367 25.8002 11.147 25.8644 11.1441 25.9288H10.1281C10.181 25.6078 10.3627 25.4384 10.6537 25.4384L10.6643 25.4367ZM11.1123 26.8248C11.0596 26.8906 10.9919 26.9429 10.9149 26.9773C10.8379 27.0117 10.7538 27.0271 10.6696 27.0224C10.338 27.0224 10.1563 26.7931 10.1281 26.4615H12.0225V26.8248H11.1123Z" fill="#1D1D1B"/>
</g>
<defs>
<clipPath id="clip0_1167_9212">
<rect width="32" height="32" fill="white"/>
</clipPath>
</defs>
</svg>
